<svg width="202" height="20" viewBox="0 0 202 20" fill="none" xmlns="http://www.w3.org/2000/svg">
<path d="M7.82609 1.63373C10.1976 1.63373 12.0949 4.05797 12.9644 7.06192H13.0171L12.8063 1.02767C12.5165 1.42292 12.0158 1.87088 11.3043 1.87088C10.4875 1.87088 9.38076 1.02767 7.72068 1.02767C3.50461 1.02767 0 5.03294 0 10.751C0 16.0738 3.05665 20 7.22002 20C9.51251 20 11.1462 18.5507 11.6206 16.8906L13.5968 20H13.6495V14.3083C13.6495 12.5692 13.834 11.6469 14.8617 11.1199V11.0672H9.93412V11.1199C11.1462 11.6733 11.4097 12.5692 11.4097 14.3083V15.0461C11.4097 17.6021 9.80237 19.0514 7.69433 19.0514C4.55863 19.0514 2.63505 15.7576 2.63505 10.7773C2.63505 5.34914 4.53228 1.63373 7.82609 1.63373Z" fill="black"/>
<path d="M21.923 20C25.1377 20 27.4566 17.1541 27.4566 13.307C27.4566 9.48617 25.1377 6.66667 21.923 6.66667C18.6819 6.66667 16.363 9.48617 16.363 13.307C16.363 17.1541 18.6819 20 21.923 20ZM21.923 19.473C19.894 19.473 18.84 16.7062 18.84 13.307C18.84 9.90777 19.894 7.19368 21.923 7.19368C23.9519 7.19368 24.9796 9.90777 24.9796 13.307C24.9796 16.7062 23.9519 19.473 21.923 19.473Z" fill="black"/>
<path d="M34.5835 20C37.7983 20 40.1171 17.1541 40.1171 13.307C40.1171 9.48617 37.7983 6.66667 34.5835 6.66667C31.3424 6.66667 29.0236 9.48617 29.0236 13.307C29.0236 17.1541 31.3424 20 34.5835 20ZM34.5835 19.473C32.5545 19.473 31.5005 16.7062 31.5005 13.307C31.5005 9.90777 32.5545 7.19368 34.5835 7.19368C36.6125 7.19368 37.6402 9.90777 37.6402 13.307C37.6402 16.7062 36.6125 19.473 34.5835 19.473Z" fill="black"/>
<path d="M47.4022 19.025C45.3732 19.025 44.1611 16.7852 44.1611 13.386C44.1611 10.0132 45.3996 7.69433 47.4286 7.69433C48.9832 7.69433 50.6697 9.27536 50.6697 12.2266V14.5191C50.6697 17.444 48.9569 19.025 47.4022 19.025ZM50.6697 10.1449C50.2217 8.06324 48.7724 6.66667 46.7171 6.66667C44.0293 6.66667 41.7105 9.27536 41.7105 13.386C41.7105 17.6021 44.003 20 46.6907 20C48.7461 20 50.2217 18.5771 50.6697 16.5217V19.7365H54.3324V19.6838C53.1993 19.1568 52.9094 18.4717 52.9094 16.8643V0H49.1677V0.0527019C50.3008 0.579711 50.6697 1.23847 50.6697 2.8722V10.1449Z" fill="black"/>
<path d="M73.658 20H73.737L78.5591 4.69038C79.0862 2.95125 79.7449 1.87088 80.7462 1.34387V1.29117H76.6619V1.34387C77.5315 1.76548 77.9267 2.55599 77.9267 3.50461C77.9267 3.92622 77.8477 4.40053 77.6896 4.87484L74.4221 15.3096L71.3391 4.32148C71.1547 3.66271 71.0229 3.16206 71.0229 2.74045C71.0229 2.08169 71.3918 1.66008 72.1033 1.34387V1.29117H67.1494V1.34387C68.1244 1.89723 68.4669 2.47694 68.9939 4.24242L69.7054 6.66667L67.044 15.2042L63.513 4.32148C63.3022 3.66271 63.1705 3.1357 63.1705 2.7141C63.1705 2.08169 63.5394 1.66008 64.2508 1.34387V1.29117H59.2179V1.34387C60.1929 1.89723 60.4827 2.47694 61.0624 4.24242L66.2535 20H66.3325L70.0479 7.82609L73.658 20Z" fill="black"/>
<path d="M84.8606 6.66667C81.9621 6.66667 79.5115 9.40711 79.5115 13.3333C79.5115 17.5494 81.9884 20 84.9133 20C87.4693 20 89.1294 18.419 89.551 15.6258L89.3929 15.5731C88.7341 17.7602 87.3639 18.7879 85.7302 18.7879C83.1742 18.7879 81.8567 16.2846 81.8567 12.8063H89.551C89.551 9.16996 88.1017 6.66667 84.8606 6.66667ZM81.883 12.2266C82.0148 9.27536 83.2796 7.19368 84.8343 7.19368C86.8896 7.19368 87.2058 9.56522 87.2058 12.2266H81.883Z" fill="black"/>
<path d="M102.374 18.6561C102.189 18.8142 101.926 18.9196 101.609 18.9196C100.766 18.9196 100.239 18.3663 100.239 17.1278C100.239 15.5468 100.318 13.3597 100.318 10.6983C100.318 7.85244 98.6318 6.66667 95.7069 6.66667C93.3881 6.66667 91.6226 7.98419 91.6226 9.74967C91.6226 10.9881 92.4131 11.6733 93.4671 11.6733C94.2049 11.6733 94.811 11.278 94.9691 10.5138C94.8637 10.5665 94.7319 10.5929 94.6265 10.5929C93.836 10.5929 93.3881 10.0132 93.3881 9.11726C93.3881 8.03689 94.0732 7.16732 95.5488 7.16732C97.2089 7.16732 97.9731 8.4058 97.9731 10.0132V12.3057L96.4711 12.6482C93.7833 13.307 91.0692 14.0975 91.0692 16.7852C91.0692 18.8669 92.5712 19.9209 94.363 19.9209C96.2339 19.9209 97.7622 18.498 97.9994 16.7589C97.9994 16.917 98.0521 17.6285 98.0521 17.6812C98.1575 19.0777 98.9217 19.9473 100.213 19.9473C101.32 19.9473 102.005 19.3939 102.374 18.7088V18.6561ZM97.9731 12.8327L97.9467 15.2569C97.894 17.4967 96.6555 18.5771 95.3117 18.5771C94.1522 18.5771 93.3617 17.8656 93.3617 16.39C93.3617 14.4664 94.6265 13.6232 96.7082 13.1225L97.9731 12.8327Z" fill="black"/>
<path d="M109.73 15.5995C109.466 17.6285 108.729 18.6825 107.595 18.6825C106.568 18.6825 106.067 17.9183 106.067 16.2055V7.61528H109.414L109.545 6.93017H106.067V2.39789H105.856C105.514 5.00659 104.302 6.95652 102.246 7.45718V7.61528H103.827V16.3109C103.827 18.8142 104.934 20 106.779 20C108.939 20 109.809 18.2609 109.941 15.5995H109.73Z" fill="black"/>
<path d="M110.874 0V0.0527019C112.007 0.579711 112.376 1.23847 112.376 2.8722V16.996C112.376 18.7352 112.165 19.1568 111.005 19.6838V19.7365H115.959V19.6838C114.826 19.1568 114.615 18.7352 114.615 16.996V12.332C114.615 9.45982 115.933 7.98419 117.54 7.98419C119.227 7.98419 119.754 9.30171 119.754 10.8037V16.996C119.754 18.7352 119.543 19.1568 118.41 19.6838V19.7365H123.364V19.6838C122.231 19.1568 121.994 18.7352 121.994 16.996V10.5929C121.994 7.95784 120.571 6.66667 118.515 6.66667C116.618 6.66667 115.221 7.90514 114.615 10.0395V0H110.874Z" fill="black"/>
<path d="M129.867 6.66667C126.969 6.66667 124.518 9.40711 124.518 13.3333C124.518 17.5494 126.995 20 129.92 20C132.476 20 134.136 18.419 134.558 15.6258L134.4 15.5731C133.741 17.7602 132.371 18.7879 130.737 18.7879C128.181 18.7879 126.863 16.2846 126.863 12.8063H134.558C134.558 9.16996 133.109 6.66667 129.867 6.66667ZM126.89 12.2266C127.022 9.27536 128.286 7.19368 129.841 7.19368C131.896 7.19368 132.213 9.56522 132.213 12.2266H126.89Z" fill="black"/>
<path d="M142.716 10.4084C142.822 10.5665 143.138 10.7246 143.56 10.7246C144.455 10.7246 145.299 9.98682 145.299 8.722C145.299 7.48353 144.324 6.66667 143.033 6.66667C141.162 6.66667 140.002 8.64295 139.475 10.7773V6.93017H135.733V6.98287C136.893 7.48353 137.235 8.16864 137.235 9.80237V16.996C137.235 18.7352 137.025 19.1568 135.892 19.6838V19.7365H141.372V19.6838C140.081 19.1831 139.475 18.7879 139.475 17.0487V13.1225C139.475 10.3557 140.766 8.19499 142.189 8.19499C143.006 8.19499 143.454 8.64295 143.454 9.32806C143.454 9.88142 143.112 10.2767 142.716 10.4084Z" fill="black"/>
<path d="M164.315 20H164.394L169.216 4.69038C169.743 2.95125 170.402 1.87088 171.403 1.34387V1.29117H167.319V1.34387C168.188 1.76548 168.584 2.55599 168.584 3.50461C168.584 3.92622 168.505 4.40053 168.346 4.87484L165.079 15.3096L161.996 4.32148C161.812 3.66271 161.68 3.16206 161.68 2.74045C161.68 2.08169 162.049 1.66008 162.76 1.34387V1.29117H157.806V1.34387C158.781 1.89723 159.124 2.47694 159.651 4.24242L160.362 6.66667L157.701 15.2042L154.17 4.32148C153.959 3.66271 153.827 3.1357 153.827 2.7141C153.827 2.08169 154.196 1.66008 154.908 1.34387V1.29117H149.875V1.34387C150.85 1.89723 151.14 2.47694 151.719 4.24242L156.91 20H156.989L160.705 7.82609L164.315 20Z" fill="black"/>
<path d="M172.657 2.60869C172.657 3.47826 173.368 4.16337 174.238 4.16337C175.134 4.16337 175.845 3.47826 175.845 2.60869C175.845 1.73913 175.134 1.02767 174.238 1.02767C173.368 1.02767 172.657 1.73913 172.657 2.60869ZM175.45 6.93017H171.708V6.98287C172.867 7.48353 173.21 8.16864 173.21 9.80237V16.996C173.21 18.7352 172.999 19.1568 171.866 19.6838V19.7365H176.82V19.6838C175.687 19.1568 175.45 18.7352 175.45 16.996V6.93017Z" fill="black"/>
<path d="M177.858 6.93017V6.98287C179.018 7.48353 179.36 8.16864 179.36 9.80237V16.996C179.36 18.7352 179.149 19.1568 178.016 19.6838V19.7365H182.97V19.6838C181.837 19.1568 181.6 18.7352 181.6 16.996V12.332C181.6 9.45982 182.944 7.98419 184.551 7.98419C186.238 7.98419 186.765 9.30171 186.765 10.8037V16.996C186.765 18.7352 186.554 19.1568 185.394 19.6838V19.7365H190.375V19.6838C189.215 19.1568 189.004 18.7352 189.004 16.996V10.5929C189.004 7.95784 187.555 6.66667 185.526 6.66667C183.629 6.66667 182.206 7.90514 181.6 10.0395V6.93017H177.858Z" fill="black"/>
<path d="M196.876 6.66667C193.977 6.66667 191.527 9.40711 191.527 13.3333C191.527 17.5494 194.004 20 196.928 20C199.484 20 201.145 18.419 201.566 15.6258L201.408 15.5731C200.749 17.7602 199.379 18.7879 197.745 18.7879C195.189 18.7879 193.872 16.2846 193.872 12.8063H201.566C201.566 9.16996 200.117 6.66667 196.876 6.66667ZM193.898 12.2266C194.03 9.27536 195.295 7.19368 196.849 7.19368C198.905 7.19368 199.221 9.56522 199.221 12.2266H193.898Z" fill="black"/>
</svg>
